<svg width="1570" height="1570" viewBox="0 0 1570 1570" fill="none" xmlns="http://www.w3.org/2000/svg">
<g opacity="0.1" filter="url(#filter0_f_2015_2018)">
<circle cx="785" cy="785" r="585" fill="url(#paint0_radial_2015_2018)"/>
</g>
<circle cx="785" cy="785" r="306.5" stroke="white" stroke-opacity="0.2" stroke-dasharray="10 10"/>
<path d="M1169.71 769.892C1169.84 773.233 1169.92 776.586 1169.97 779.948L1169.47 779.955C1169.49 781.634 1169.5 783.316 1169.5 785C1169.5 786.684 1169.49 788.366 1169.47 790.045L1169.97 790.052C1169.92 793.414 1169.84 796.767 1169.71 800.108L1169.21 800.089C1169.08 803.445 1168.91 806.79 1168.69 810.123L1169.19 810.155C1168.97 813.509 1168.71 816.852 1168.41 820.182L1167.91 820.137C1167.61 823.482 1167.26 826.814 1166.87 830.133L1167.37 830.191C1166.97 833.528 1166.54 836.851 1166.06 840.161L1165.57 840.09C1165.09 843.414 1164.57 846.724 1164 850.02L1164.5 850.104C1163.93 853.414 1163.32 856.709 1162.67 859.989L1162.18 859.892C1161.53 863.186 1160.83 866.465 1160.1 869.729L1160.58 869.839C1159.85 873.112 1159.06 876.37 1158.24 879.611L1157.76 879.488C1156.93 882.743 1156.06 885.982 1155.16 889.203L1155.64 889.339C1154.73 892.568 1153.77 895.779 1152.78 898.972L1152.3 898.824C1151.31 902.03 1150.27 905.219 1149.19 908.389L1149.67 908.55C1148.59 911.727 1147.46 914.884 1146.3 918.022L1145.84 917.849C1144.67 920.997 1143.47 924.125 1142.22 927.233L1142.69 927.419C1141.44 930.534 1140.15 933.63 1138.83 936.704L1138.37 936.506C1137.04 939.586 1135.68 942.645 1134.27 945.683L1134.72 945.893C1133.31 948.939 1131.87 951.963 1130.38 954.965L1129.93 954.743C1128.45 957.747 1126.92 960.729 1125.36 963.689L1125.8 963.922C1124.23 966.89 1122.63 969.834 1120.98 972.755L1120.55 972.51C1118.91 975.431 1117.23 978.328 1115.51 981.201L1115.94 981.458C1114.22 984.339 1112.46 987.196 1110.67 990.027L1110.24 989.76C1108.45 992.59 1106.62 995.395 1104.76 998.174L1105.17 998.452C1103.3 1001.24 1101.4 1004 1099.46 1006.74L1099.05 1006.45C1097.11 1009.18 1095.14 1011.88 1093.13 1014.56L1093.53 1014.86C1091.52 1017.55 1089.47 1020.2 1087.39 1022.83L1087 1022.52C1084.92 1025.15 1082.81 1027.75 1080.67 1030.32L1081.05 1030.64C1078.9 1033.22 1076.72 1035.77 1074.51 1038.28L1074.13 1037.95C1071.92 1040.47 1069.67 1042.95 1067.4 1045.41L1067.76 1045.75C1065.49 1048.21 1063.17 1050.64 1060.83 1053.04L1060.47 1052.69C1058.13 1055.09 1055.76 1057.45 1053.36 1059.79L1053.71 1060.15C1051.31 1062.49 1048.87 1064.79 1046.41 1067.07L1046.07 1066.7C1043.61 1068.97 1041.12 1071.21 1038.6 1073.42L1038.93 1073.79C1036.4 1076 1033.85 1078.18 1031.27 1080.32L1030.95 1079.94C1028.38 1082.08 1025.78 1084.19 1023.14 1086.26L1023.45 1086.65C1020.82 1088.73 1018.16 1090.77 1015.47 1092.78L1015.17 1092.37C1012.49 1094.38 1009.78 1096.34 1007.04 1098.28L1007.33 1098.69C1004.59 1100.62 1001.83 1102.52 999.038 1104.39L998.76 1103.97C995.978 1105.83 993.17 1107.65 990.336 1109.44L990.603 1109.86C987.769 1111.65 984.909 1113.41 982.025 1115.12L981.769 1114.69C978.893 1116.4 975.993 1118.08 973.069 1119.72L973.313 1120.15C970.39 1121.79 967.443 1123.39 964.473 1124.95L964.24 1124.51C961.278 1126.07 958.294 1127.59 955.287 1129.07L955.508 1129.52C952.504 1131 949.478 1132.45 946.43 1133.85L946.221 1133.4C943.181 1134.8 940.119 1136.16 937.037 1137.48L937.234 1137.94C934.158 1139.26 931.061 1140.54 927.944 1141.79L927.759 1141.32C924.649 1142.56 921.519 1143.76 918.37 1144.92L918.543 1145.39C915.403 1146.55 912.244 1147.66 909.067 1148.74L908.906 1148.27C905.735 1149.34 902.545 1150.38 899.337 1151.37L899.485 1151.85C896.291 1152.83 893.078 1153.78 889.849 1154.69L889.714 1154.21C886.491 1155.11 883.252 1155.98 879.996 1156.8L880.119 1157.29C876.877 1158.11 873.618 1158.88 870.344 1159.62L870.234 1159.13C866.97 1159.87 863.691 1160.56 860.396 1161.21L860.493 1161.7C857.212 1162.35 853.917 1162.95 850.607 1163.52L850.523 1163.02C847.226 1163.59 843.916 1164.11 840.592 1164.58L840.663 1165.08C837.352 1165.55 834.029 1165.99 830.692 1166.38L830.634 1165.88C827.314 1166.27 823.982 1166.61 820.637 1166.92L820.683 1167.41C817.352 1167.72 814.01 1167.97 810.655 1168.19L810.623 1167.69C807.29 1167.91 803.945 1168.08 800.589 1168.21L800.608 1168.71C797.267 1168.84 793.914 1168.92 790.552 1168.97L790.545 1168.47C788.866 1168.49 787.184 1168.5 785.5 1168.5C783.816 1168.5 782.134 1168.49 780.455 1168.47L780.448 1168.97C777.085 1168.92 773.733 1168.84 770.392 1168.71L770.411 1168.21C767.055 1168.08 763.71 1167.91 760.377 1167.69L760.345 1168.19C756.99 1167.97 753.648 1167.72 750.317 1167.41L750.362 1166.92C747.018 1166.61 743.685 1166.27 740.366 1165.88L740.308 1166.38C736.971 1165.99 733.647 1165.55 730.337 1165.08L730.408 1164.58C727.084 1164.11 723.773 1163.59 720.477 1163.02L720.393 1163.52C717.083 1162.95 713.787 1162.35 710.507 1161.7L710.604 1161.21C707.309 1160.56 704.029 1159.87 700.765 1159.13L700.656 1159.62C697.381 1158.88 694.123 1158.11 690.881 1157.29L691.003 1156.8C687.748 1155.98 684.508 1155.11 681.286 1154.21L681.151 1154.69C677.921 1153.78 674.709 1152.83 671.515 1151.85L671.662 1151.37C668.455 1150.37 665.265 1149.34 662.093 1148.27L661.933 1148.74C658.756 1147.66 655.597 1146.55 652.457 1145.39L652.63 1144.92C649.481 1143.76 646.351 1142.56 643.241 1141.32L643.055 1141.79C639.938 1140.54 636.842 1139.26 633.765 1137.94L633.963 1137.48C630.88 1136.16 627.819 1134.8 624.779 1133.4L624.57 1133.85C621.522 1132.44 618.496 1131 615.492 1129.52L615.713 1129.07C612.706 1127.59 609.722 1126.07 606.76 1124.51L606.527 1124.95C603.557 1123.39 600.61 1121.79 597.686 1120.15L597.931 1119.72C595.007 1118.08 592.107 1116.4 589.231 1114.69L588.975 1115.12C586.091 1113.4 583.231 1111.65 580.397 1109.86L580.663 1109.44C577.83 1107.65 575.022 1105.83 572.239 1103.97L571.962 1104.39C569.171 1102.52 566.407 1100.62 563.668 1098.69L563.957 1098.28C561.221 1096.34 558.512 1094.38 555.83 1092.37L555.531 1092.78C552.842 1090.77 550.18 1088.73 547.546 1086.65L547.856 1086.26C545.225 1084.19 542.621 1082.08 540.046 1079.94L539.727 1080.32C537.147 1078.18 534.595 1076 532.073 1073.79L532.402 1073.42C529.883 1071.21 527.392 1068.97 524.932 1066.7L524.593 1067.07C522.128 1064.79 519.693 1062.49 517.289 1060.15L517.638 1059.79C515.237 1057.45 512.866 1055.09 510.526 1052.69L510.169 1053.04C507.826 1050.64 505.515 1048.21 503.235 1045.75L503.602 1045.41C501.326 1042.95 499.082 1040.47 496.87 1037.95L496.494 1038.28C494.28 1035.77 492.098 1033.22 489.949 1030.64L490.333 1030.32C488.188 1027.75 486.077 1025.15 483.999 1022.52L483.607 1022.83C481.526 1020.2 479.48 1017.55 477.468 1014.86L477.868 1014.56C475.861 1011.88 473.888 1009.18 471.95 1006.45L471.542 1006.74C469.602 1004 467.697 1001.24 465.827 998.452L466.243 998.174C464.378 995.395 462.549 992.59 460.757 989.76L460.334 990.027C458.54 987.195 456.783 984.339 455.061 981.457L455.491 981.201C453.774 978.328 452.095 975.431 450.452 972.51L450.016 972.755C448.374 969.834 446.769 966.89 445.201 963.922L445.643 963.689C444.08 960.729 442.554 957.747 441.067 954.743L440.619 954.965C439.133 951.963 437.685 948.939 436.276 945.893L436.73 945.683C435.324 942.645 433.957 939.586 432.63 936.506L432.17 936.704C430.845 933.629 429.559 930.534 428.312 927.419L428.777 927.233C427.533 924.125 426.329 920.996 425.165 917.849L424.696 918.022C423.535 914.884 422.415 911.726 421.335 908.55L421.808 908.389C420.73 905.219 419.693 902.03 418.696 898.823L418.219 898.972C417.226 895.778 416.274 892.567 415.364 889.339L415.845 889.203C414.936 885.982 414.069 882.743 413.243 879.488L412.758 879.611C411.936 876.37 411.155 873.112 410.416 869.839L410.903 869.728C410.167 866.465 409.471 863.186 408.818 859.892L408.328 859.989C407.678 856.709 407.069 853.414 406.503 850.104L406.996 850.02C406.433 846.724 405.911 843.414 405.432 840.09L404.937 840.161C404.461 836.851 404.026 833.528 403.635 830.191L404.131 830.133C403.742 826.814 403.394 823.481 403.09 820.137L402.592 820.182C402.289 816.852 402.029 813.509 401.812 810.155L402.311 810.123C402.095 806.789 401.922 803.444 401.792 800.088L401.292 800.108C401.163 796.767 401.076 793.414 401.033 790.052L401.533 790.045C401.511 788.366 401.5 786.684 401.5 785C401.5 783.316 401.511 781.634 401.533 779.955L401.033 779.948C401.076 776.586 401.163 773.233 401.292 769.892L401.792 769.911C401.922 766.555 402.095 763.21 402.311 759.877L401.812 759.845C402.029 756.49 402.289 753.148 402.592 749.818L403.09 749.863C403.394 746.518 403.742 743.186 404.131 739.867L403.635 739.809C404.026 736.472 404.461 733.149 404.937 729.839L405.432 729.91C405.911 726.586 406.433 723.276 406.996 719.98L406.503 719.896C407.069 716.586 407.678 713.291 408.328 710.011L408.818 710.108C409.471 706.814 410.167 703.535 410.903 700.271L410.416 700.161C411.155 696.888 411.936 693.63 412.758 690.389L413.243 690.512C414.069 687.257 414.936 684.018 415.845 680.797L415.364 680.661C416.274 677.432 417.226 674.221 418.219 671.028L418.696 671.176C419.693 667.97 420.73 664.781 421.808 661.611L421.335 661.45C422.415 658.273 423.536 655.116 424.696 651.978L425.165 652.151C426.329 649.003 427.533 645.875 428.777 642.767L428.312 642.581C429.559 639.466 430.845 636.37 432.17 633.296L432.63 633.494C433.957 630.414 435.324 627.355 436.73 624.317L436.276 624.107C437.685 621.061 439.133 618.037 440.619 615.035L441.067 615.257C442.555 612.253 444.08 609.27 445.643 606.311L445.201 606.078C446.769 603.11 448.374 600.166 450.017 597.245L450.452 597.49C452.095 594.569 453.775 591.672 455.491 588.799L455.062 588.542C456.783 585.661 458.54 582.804 460.334 579.973L460.757 580.24C462.55 577.41 464.378 574.605 466.243 571.826L465.827 571.548C467.697 568.761 469.602 565.999 471.542 563.265L471.95 563.554C473.888 560.822 475.861 558.117 477.868 555.438L477.468 555.138C479.48 552.453 481.526 549.795 483.607 547.165L483.999 547.475C486.077 544.848 488.188 542.249 490.333 539.678L489.949 539.358C492.098 536.782 494.28 534.234 496.494 531.716L496.87 532.046C499.082 529.531 501.326 527.045 503.602 524.589L503.235 524.249C505.515 521.789 507.826 519.359 510.169 516.959L510.527 517.308C512.866 514.912 515.237 512.546 517.638 510.211L517.289 509.853C519.693 507.515 522.128 505.208 524.593 502.933L524.932 503.301C527.392 501.029 529.883 498.79 532.402 496.583L532.073 496.207C534.595 493.997 537.147 491.82 539.727 489.676L540.047 490.061C542.621 487.921 545.225 485.815 547.856 483.742L547.546 483.349C550.18 481.274 552.842 479.232 555.531 477.225L555.83 477.625C558.512 475.623 561.222 473.655 563.957 471.722L563.668 471.314C566.407 469.379 569.171 467.479 571.962 465.615L572.239 466.03C575.022 464.171 577.83 462.347 580.664 460.559L580.397 460.137C583.231 458.348 586.091 456.595 588.975 454.879L589.231 455.308C592.107 453.597 595.007 451.922 597.931 450.285L597.687 449.848C600.61 448.211 603.557 446.61 606.527 445.048L606.76 445.49C609.722 443.932 612.706 442.411 615.713 440.928L615.492 440.48C618.496 438.998 621.522 437.555 624.57 436.15L624.779 436.604C627.819 435.203 630.881 433.841 633.963 432.518L633.766 432.058C636.842 430.737 639.939 429.455 643.056 428.213L643.241 428.678C646.351 427.438 649.481 426.238 652.63 425.078L652.458 424.609C655.597 423.452 658.756 422.336 661.933 421.259L662.094 421.733C665.265 420.659 668.455 419.625 671.663 418.632L671.515 418.154C674.709 417.165 677.922 416.217 681.151 415.31L681.286 415.791C684.509 414.886 687.748 414.021 691.004 413.199L690.881 412.714C694.123 411.894 697.382 411.116 700.656 410.38L700.766 410.868C704.03 410.133 707.309 409.441 710.604 408.79L710.507 408.3C713.788 407.652 717.083 407.046 720.393 406.482L720.477 406.975C723.774 406.414 727.084 405.894 730.408 405.417L730.337 404.922C733.648 404.447 736.971 404.014 740.308 403.624L740.366 404.121C743.686 403.733 747.018 403.387 750.363 403.084L750.317 402.586C753.648 402.284 756.99 402.025 760.345 401.809L760.377 402.308C763.71 402.093 767.055 401.92 770.411 401.791L770.392 401.291C773.733 401.162 777.086 401.076 780.448 401.032L780.455 401.532C782.134 401.511 783.816 401.5 785.5 401.5C787.184 401.5 788.866 401.511 790.545 401.532L790.552 401.032C793.915 401.076 797.267 401.162 800.608 401.291L800.589 401.791C803.945 401.92 807.29 402.093 810.623 402.308L810.656 401.809C814.01 402.025 817.352 402.284 820.683 402.586L820.638 403.084C823.982 403.387 827.315 403.733 830.634 404.121L830.692 403.624C834.029 404.015 837.353 404.447 840.663 404.922L840.592 405.417C843.916 405.894 847.227 406.414 850.523 406.975L850.607 406.482C853.917 407.046 857.213 407.652 860.493 408.3L860.396 408.79C863.691 409.441 866.971 410.134 870.235 410.868L870.344 410.38C873.619 411.116 876.877 411.895 880.119 412.714L879.997 413.199C883.252 414.021 886.492 414.886 889.714 415.791L889.849 415.31C893.079 416.217 896.291 417.165 899.485 418.154L899.338 418.632C902.545 419.625 905.735 420.659 908.907 421.733L909.067 421.26C912.244 422.336 915.403 423.452 918.543 424.609L918.37 425.078C921.519 426.238 924.649 427.438 927.759 428.678L927.945 428.213C931.062 429.455 934.159 430.737 937.235 432.058L937.037 432.518C940.12 433.841 943.181 435.203 946.221 436.605L946.43 436.15C949.478 437.555 952.504 438.998 955.508 440.48L955.287 440.928C958.294 442.411 961.278 443.932 964.24 445.49L964.473 445.048C967.443 446.611 970.39 448.211 973.314 449.849L973.069 450.285C975.993 451.922 978.893 453.597 981.769 455.309L982.025 454.879C984.909 456.595 987.769 458.348 990.603 460.137L990.337 460.56C993.17 462.347 995.978 464.171 998.761 466.031L999.038 465.615C1001.83 467.479 1004.59 469.379 1007.33 471.314L1007.04 471.723C1009.78 473.656 1012.49 475.623 1015.17 477.625L1015.47 477.225C1018.16 479.232 1020.82 481.274 1023.45 483.349L1023.14 483.742C1025.78 485.815 1028.38 487.921 1030.95 490.061L1031.27 489.676C1033.85 491.82 1036.4 493.997 1038.93 496.207L1038.6 496.583C1041.12 498.79 1043.61 501.029 1046.07 503.301L1046.41 502.933C1048.87 505.208 1051.31 507.515 1053.71 509.853L1053.36 510.211C1055.76 512.546 1058.13 514.912 1060.47 517.309L1060.83 516.959C1063.17 519.359 1065.49 521.789 1067.76 524.249L1067.4 524.589C1069.67 527.045 1071.92 529.531 1074.13 532.047L1074.51 531.716C1076.72 534.235 1078.9 536.782 1081.05 539.358L1080.67 539.678C1082.81 542.249 1084.92 544.848 1087 547.475L1087.39 547.165C1089.47 549.795 1091.52 552.453 1093.53 555.139L1093.13 555.438C1095.14 558.117 1097.11 560.822 1099.05 563.554L1099.46 563.265C1101.4 566 1103.3 568.761 1105.17 571.548L1104.76 571.826C1106.62 574.605 1108.45 577.41 1110.24 580.24L1110.67 579.973C1112.46 582.805 1114.22 585.661 1115.94 588.543L1115.51 588.799C1117.23 591.672 1118.91 594.569 1120.55 597.49L1120.98 597.245C1122.63 600.166 1124.23 603.11 1125.8 606.078L1125.36 606.311C1126.92 609.271 1128.45 612.253 1129.93 615.257L1130.38 615.035C1131.87 618.037 1133.32 621.061 1134.72 624.107L1134.27 624.317C1135.68 627.355 1137.04 630.414 1138.37 633.494L1138.83 633.296C1140.15 636.371 1141.44 639.466 1142.69 642.581L1142.22 642.767C1143.47 645.875 1144.67 649.004 1145.84 652.151L1146.3 651.978C1147.46 655.116 1148.59 658.274 1149.67 661.45L1149.19 661.611C1150.27 664.781 1151.31 667.97 1152.3 671.177L1152.78 671.028C1153.77 674.222 1154.73 677.433 1155.64 680.661L1155.16 680.797C1156.06 684.018 1156.93 687.257 1157.76 690.512L1158.24 690.389C1159.06 693.63 1159.85 696.888 1160.58 700.161L1160.1 700.272C1160.83 703.535 1161.53 706.814 1162.18 710.108L1162.67 710.011C1163.32 713.291 1163.93 716.586 1164.5 719.896L1164 719.98C1164.57 723.276 1165.09 726.586 1165.57 729.91L1166.06 729.839C1166.54 733.149 1166.97 736.472 1167.37 739.809L1166.87 739.867C1167.26 743.186 1167.61 746.519 1167.91 749.863L1168.41 749.818C1168.71 753.148 1168.97 756.491 1169.19 759.845L1168.69 759.877C1168.91 763.211 1169.08 766.556 1169.21 769.912L1169.71 769.892Z" stroke="white" stroke-opacity="0.2" stroke-dasharray="10 10"/>
<circle cx="785" cy="785" r="345.5" stroke="white" stroke-opacity="0.2"/>
<path d="M1208.5 785C1208.5 1018.34 1019.12 1207.5 785.5 1207.5C551.883 1207.5 362.5 1018.34 362.5 785C362.5 551.66 551.883 362.5 785.5 362.5C1019.12 362.5 1208.5 551.66 1208.5 785Z" stroke="white" stroke-opacity="0.2"/>
<defs>
<filter id="filter0_f_2015_2018" x="0" y="0" width="1570" height="1570" filterUnits="userSpaceOnUse" color-interpolation-filters="sRGB">
<feFlood flood-opacity="0" result="BackgroundImageFix"/>
<feBlend mode="normal" in="SourceGraphic" in2="BackgroundImageFix" result="shape"/>
<feGaussianBlur stdDeviation="100" result="effect1_foregroundBlur_2015_2018"/>
</filter>
<radialGradient id="paint0_radial_2015_2018" cx="0" cy="0" r="1" gradientUnits="userSpaceOnUse" gradientTransform="translate(785 785) rotate(90.0548) scale(585 585)">
<stop stop-color="white"/>
<stop offset="1" stop-color="white" stop-opacity="0"/>
</radialGradient>
</defs>
</svg>
