<svg width="210" height="50" viewBox="0 0 210 50" fill="none" xmlns="http://www.w3.org/2000/svg">
<g clip-path="url(#clip0_2001_402)">
<path d="M42.463 47.0161C41.7821 47.0161 41.2374 46.8548 40.7471 46.5591C40.284 46.2634 39.93 45.8602 39.6848 45.3226C39.4397 44.8118 39.3307 44.1936 39.3035 43.5215C39.3035 42.8226 39.4397 42.2312 39.6848 41.6935C39.93 41.1828 40.284 40.7527 40.7471 40.4839C41.2101 40.1882 41.7821 40.0538 42.4358 40.0538C43.1167 40.0538 43.6887 40.2151 44.2062 40.5376C44.6965 40.8602 45.0506 41.3172 45.2412 41.8817L44.3424 42.1505C44.179 41.7473 43.9339 41.4516 43.607 41.2366C43.2802 41.0215 42.8716 40.914 42.4358 40.914C41.9455 40.914 41.537 41.0215 41.2101 41.2366C40.8833 41.4516 40.6381 41.7742 40.5019 42.1505C40.3385 42.5538 40.2568 42.9839 40.2568 43.5215C40.2568 44.3011 40.4475 44.9462 40.8016 45.4301C41.1556 45.914 41.7004 46.1559 42.4086 46.1559C42.8716 46.1559 43.2529 46.0484 43.5798 45.8602C43.9066 45.6452 44.1518 45.3495 44.3152 44.9731L45.2412 45.2419C44.9961 45.8333 44.642 46.2634 44.1518 46.586C43.6887 46.8548 43.1167 47.0161 42.463 47.0161Z" fill="white"/>
<path d="M48.0739 46.828V41.0753H45.7043V40.2419H51.3424V41.0753H48.9728V46.828H48.0739Z" fill="white"/>
<path d="M52.5136 49.7581V40.2688H53.3307V45.2151H53.4397V49.7581H52.5136ZM55.5097 47.0161C54.9105 47.0161 54.3658 46.8548 53.9572 46.5591C53.5214 46.2634 53.2218 45.8333 53.0039 45.3226C52.786 44.7849 52.677 44.1935 52.677 43.5484C52.677 42.8763 52.786 42.2849 53.0039 41.7742C53.2218 41.2634 53.5486 40.8333 53.9844 40.5376C54.4202 40.2419 54.9377 40.0806 55.5642 40.0806C56.1634 40.0806 56.7082 40.2419 57.144 40.5376C57.5798 40.8333 57.9066 41.2634 58.1517 41.7742C58.3969 42.2849 58.5058 42.8763 58.5058 43.5484C58.5058 44.1935 58.3969 44.7849 58.1517 45.3226C57.9066 45.8333 57.5798 46.2634 57.144 46.5591C56.6809 46.8548 56.1362 47.0161 55.5097 47.0161ZM55.428 46.1828C55.891 46.1828 56.2724 46.0753 56.5992 45.8333C56.8988 45.5914 57.144 45.2957 57.2801 44.8925C57.4436 44.4892 57.5253 44.0323 57.5253 43.5484C57.5253 43.0645 57.4436 42.6075 57.3074 42.2043C57.144 41.8011 56.9261 41.4785 56.6265 41.2634C56.3268 41.0215 55.9183 40.914 55.4553 40.914C54.9922 40.914 54.6109 41.0215 54.284 41.2366C53.9844 41.4516 53.7393 41.7742 53.6031 42.1774C53.4397 42.5806 53.3852 43.0376 53.3852 43.5484C53.3852 44.0591 53.4669 44.5161 53.6031 44.9193C53.7665 45.3226 53.9844 45.6452 54.284 45.8602C54.5564 46.0753 54.965 46.1828 55.428 46.1828Z" fill="white"/>
<path d="M61.7471 47.0161C61.2568 47.0161 60.821 46.9355 60.4942 46.7473C60.1673 46.5591 59.8949 46.3441 59.7315 46.0215C59.5681 45.7258 59.4864 45.4032 59.4864 45.0538C59.4864 44.7043 59.5681 44.3817 59.7043 44.1398C59.8405 43.8979 60.0584 43.6828 60.3035 43.5215C60.5486 43.3602 60.8482 43.2258 61.1751 43.1452C61.5019 43.0645 61.8833 42.9839 62.2918 42.9301C62.7004 42.8763 63.1089 42.8226 63.4903 42.7688C63.8716 42.715 64.2257 42.6613 64.5253 42.6344L64.1984 42.8226C64.1984 42.1774 64.0895 41.6936 63.8171 41.371C63.5447 41.0484 63.0817 40.8871 62.428 40.8871C61.965 40.8871 61.5837 40.9946 61.2568 41.1828C60.93 41.3979 60.7121 41.6935 60.6031 42.1505L59.7315 41.9086C59.8949 41.3172 60.1946 40.8602 60.6576 40.5376C61.1206 40.2151 61.7198 40.0538 62.4552 40.0538C63.0545 40.0538 63.572 40.1613 64.0078 40.4032C64.4436 40.6183 64.7432 40.9409 64.9066 41.371C64.9883 41.5591 65.0428 41.7742 65.07 42.0161C65.0973 42.2581 65.0973 42.5 65.0973 42.7419V46.828H64.2801V45.1882L64.5253 45.2957C64.3074 45.8602 63.9533 46.2903 63.463 46.586C62.9728 46.8548 62.4008 47.0161 61.7471 47.0161ZM61.856 46.2366C62.2918 46.2366 62.6459 46.1559 62.9728 46.0215C63.2996 45.8602 63.5447 45.6721 63.7354 45.4032C63.9261 45.1344 64.0622 44.8387 64.1167 44.5161C64.1712 44.3011 64.1984 44.0591 64.1984 43.8172C64.1984 43.5753 64.1984 43.3871 64.1984 43.2527L64.5525 43.4409C64.2529 43.4677 63.8988 43.5215 63.5447 43.5753C63.1907 43.629 62.8366 43.6559 62.4825 43.7097C62.1284 43.7634 61.8288 43.8172 61.5292 43.8978C61.3385 43.9516 61.1479 44.0323 60.9844 44.1129C60.821 44.2204 60.6576 44.328 60.5486 44.4892C60.4397 44.6505 60.3852 44.8387 60.3852 45.0806C60.3852 45.2688 60.4397 45.457 60.5214 45.6452C60.6303 45.8333 60.7665 45.9677 60.9844 46.1022C61.2023 46.2366 61.5019 46.2366 61.856 46.2366Z" fill="white"/>
<path d="M65.9416 46.828L68.5564 43.4946L66.0233 40.2419H67.1128L69.1012 42.7957L71.0895 40.2419H72.179L69.6187 43.4946L72.2335 46.828H71.144L69.1012 44.1936L67.0584 46.828H65.9416Z" fill="white"/>
<path d="M75.7198 47.0161C75.0661 47.0161 74.4942 46.8548 74.0311 46.5591C73.5681 46.2634 73.214 45.8602 72.9416 45.3226C72.6965 44.8118 72.5603 44.1936 72.5603 43.5215C72.5603 42.8226 72.6965 42.2312 72.9416 41.7204C73.1868 41.2097 73.5681 40.8065 74.0311 40.5108C74.4942 40.2151 75.0661 40.0806 75.7198 40.0806C76.3735 40.0806 76.9455 40.2419 77.4358 40.5108C77.8988 40.8065 78.2801 41.2097 78.5253 41.7473C78.7704 42.2581 78.9066 42.8763 78.9066 43.5484C78.9066 44.2473 78.7704 44.8387 78.5253 45.3763C78.2801 45.8871 77.9261 46.3172 77.4358 46.586C76.9455 46.8548 76.4008 47.0161 75.7198 47.0161ZM75.7198 46.1559C76.4552 46.1559 77 45.914 77.3813 45.4301C77.7354 44.9462 77.9261 44.3011 77.9261 43.5484C77.9261 42.7419 77.7354 42.1237 77.3813 41.6398C77.0272 41.1559 76.4825 40.9409 75.7198 40.9409C75.2296 40.9409 74.821 41.0484 74.4942 41.2634C74.1673 41.4785 73.9222 41.8011 73.7587 42.1774C73.5953 42.5538 73.5136 43.0108 73.5136 43.5215C73.5136 44.3011 73.7043 44.9462 74.0584 45.4301C74.4669 45.914 75.0117 46.1559 75.7198 46.1559Z" fill="white"/>
<path d="M80.2412 46.828V40.2419H82.9922C83.1284 40.2419 83.2918 40.2419 83.5097 40.2688C83.7004 40.2957 83.891 40.3226 84.0817 40.3495C84.463 40.457 84.7626 40.6452 84.9805 40.9409C85.1984 41.2366 85.3346 41.6129 85.3346 42.0161C85.3346 42.2581 85.3074 42.4731 85.2257 42.6344C85.144 42.8226 85.0622 42.9839 84.9261 43.1183C84.8716 43.1989 84.7899 43.2527 84.7354 43.3064C84.6537 43.3602 84.5992 43.3871 84.5175 43.4409C84.6537 43.4677 84.7899 43.5215 84.9533 43.6022C85.1984 43.7366 85.3619 43.9247 85.498 44.1667C85.6342 44.4086 85.6887 44.6774 85.6887 45.0269C85.6887 45.4839 85.5798 45.8333 85.3619 46.129C85.144 46.4247 84.8444 46.6129 84.4903 46.7204C84.3268 46.7742 84.1362 46.8011 83.9455 46.8011C83.7549 46.8011 83.5642 46.828 83.4008 46.828H80.2412ZM81.1673 43.172H83.0194C83.1284 43.172 83.2374 43.172 83.3735 43.1452C83.5097 43.1183 83.6187 43.1183 83.7276 43.0645C83.9455 42.9839 84.1089 42.8763 84.1907 42.6882C84.2996 42.5 84.3541 42.3118 84.3541 42.0968C84.3541 41.8548 84.2996 41.6667 84.1907 41.4785C84.0817 41.3172 83.9183 41.1828 83.7004 41.1022C83.5642 41.0484 83.4008 41.0215 83.2101 41.0215C83.0467 41.0215 82.9377 41.0215 82.8833 41.0215H81.1673V43.172ZM81.1673 46.0753H83.3191C83.4008 46.0753 83.5097 46.0753 83.6459 46.0484C83.7821 46.0215 83.891 46.0215 84 45.9946C84.2451 45.9409 84.4086 45.8065 84.5447 45.6183C84.6537 45.4301 84.7082 45.2419 84.7082 45C84.7082 44.7043 84.6265 44.4892 84.463 44.3011C84.2996 44.1129 84.0545 44.0054 83.7821 43.9516C83.6731 43.9247 83.5914 43.9247 83.4825 43.9247C83.3735 43.9247 83.2918 43.9247 83.2101 43.9247H81.1673V46.0753Z" fill="white"/>
<path d="M88.7665 47.0161C88.2763 47.0161 87.8405 46.9355 87.5136 46.7473C87.1868 46.5591 86.9144 46.3441 86.751 46.0215C86.5876 45.7258 86.5058 45.4032 86.5058 45.0538C86.5058 44.7043 86.5876 44.3817 86.7237 44.1398C86.8599 43.8979 87.0778 43.6828 87.323 43.5215C87.5681 43.3602 87.8677 43.2258 88.1946 43.1452C88.5214 43.0645 88.9027 42.9839 89.3113 42.9301C89.7198 42.8763 90.1284 42.8226 90.5097 42.7688C90.8911 42.715 91.2451 42.6613 91.5448 42.6344L91.2179 42.8226C91.2179 42.1774 91.109 41.6936 90.8366 41.371C90.5642 41.0484 90.1012 40.8871 89.4475 40.8871C88.9844 40.8871 88.6031 40.9946 88.2763 41.1828C87.9494 41.3979 87.7315 41.6935 87.6226 42.1505L86.751 41.9086C86.9144 41.3172 87.214 40.8602 87.677 40.5376C88.1401 40.2151 88.7393 40.0538 89.4747 40.0538C90.0739 40.0538 90.5914 40.1613 91.0272 40.4032C91.463 40.6183 91.7627 40.9409 91.9261 41.371C92.0078 41.5591 92.0623 41.7742 92.0895 42.0161C92.1167 42.2581 92.1167 42.5 92.1167 42.7419V46.828H91.2996V45.1882L91.5448 45.2957C91.3269 45.8602 90.9728 46.2903 90.4825 46.586C89.9922 46.8548 89.4202 47.0161 88.7665 47.0161ZM88.8755 46.2366C89.3113 46.2366 89.6654 46.1559 89.9922 46.0215C90.3191 45.8602 90.5642 45.6721 90.7549 45.4032C90.9455 45.1344 91.0817 44.8387 91.1362 44.5161C91.1907 44.3011 91.2179 44.0591 91.2179 43.8172C91.2179 43.5753 91.2179 43.3871 91.2179 43.2527L91.572 43.4409C91.2724 43.4677 90.9183 43.5215 90.5642 43.5753C90.2101 43.629 89.856 43.6559 89.502 43.7097C89.1479 43.7634 88.8483 43.8172 88.5486 43.8978C88.358 43.9516 88.1673 44.0323 88.0039 44.1129C87.8405 44.2204 87.677 44.328 87.5681 44.4892C87.4591 44.6505 87.4047 44.8387 87.4047 45.0806C87.4047 45.2688 87.4591 45.457 87.5409 45.6452C87.6498 45.8333 87.786 45.9677 88.0039 46.1022C88.2218 46.2366 88.5214 46.2366 88.8755 46.2366Z" fill="white"/>
<path d="M93.6965 46.828V40.2419H94.5953V43.0914H98.3541V40.2419H99.2529V46.828H98.3541V43.9785H94.5953V46.828H93.6965Z" fill="white"/>
<path d="M106.307 40.2688V46.8548H105.409V41.7473L101.759 46.8548H100.996V40.2688H101.868V45.3495L105.518 40.2688H106.307Z" fill="white"/>
<path d="M110.856 47.0161C110.202 47.0161 109.658 46.8817 109.167 46.586C108.677 46.2903 108.323 45.914 108.051 45.3763C107.778 44.8656 107.669 44.2473 107.669 43.5753C107.669 42.8495 107.805 42.2312 108.051 41.7204C108.323 41.2097 108.677 40.7796 109.14 40.5108C109.603 40.2151 110.175 40.0806 110.802 40.0806C111.455 40.0806 112.027 40.2419 112.49 40.5376C112.953 40.8333 113.307 41.2634 113.553 41.8279C113.798 42.3925 113.907 43.0376 113.879 43.8172H112.953V43.4946C112.926 42.6344 112.763 41.9892 112.409 41.5591C112.054 41.129 111.537 40.914 110.856 40.914C110.148 40.914 109.603 41.129 109.222 41.6129C108.84 42.0968 108.65 42.715 108.65 43.5753C108.65 44.4086 108.84 45.0538 109.222 45.5107C109.603 45.9677 110.148 46.2097 110.829 46.2097C111.319 46.2097 111.728 46.1021 112.082 45.8871C112.436 45.672 112.708 45.3495 112.926 44.9462L113.77 45.2688C113.498 45.8333 113.117 46.2903 112.599 46.586C112.082 46.8548 111.482 47.0161 110.856 47.0161ZM108.296 43.7903V43.0376H113.389V43.7903H108.296Z" fill="white"/>
<path d="M123.004 40.2688V46.8548H122.132V41.7473L118.482 46.8548H117.72V40.2688H118.591V45.3495L122.241 40.2688H123.004Z" fill="white"/>
<path d="M127.198 46.828V40.2419H128.125V43.414L131.093 40.2419H132.292L129.187 43.5484L132.728 46.828H131.42L128.152 43.6559V46.828H127.198Z" fill="white"/>
<path d="M133.327 49.7581V40.2688H134.144V45.2151H134.253V49.7581H133.327ZM136.323 47.0161C135.724 47.0161 135.179 46.8548 134.77 46.5591C134.335 46.2634 134.035 45.8333 133.817 45.3226C133.599 44.7849 133.49 44.1935 133.49 43.5484C133.49 42.8763 133.599 42.2849 133.817 41.7742C134.035 41.2634 134.362 40.8333 134.798 40.5376C135.233 40.2419 135.751 40.0806 136.377 40.0806C136.977 40.0806 137.521 40.2419 137.957 40.5376C138.393 40.8333 138.72 41.2634 138.965 41.7742C139.21 42.2849 139.319 42.8763 139.319 43.5484C139.319 44.1935 139.21 44.7849 138.965 45.3226C138.72 45.8333 138.393 46.2634 137.957 46.5591C137.467 46.8548 136.949 47.0161 136.323 47.0161ZM136.214 46.1828C136.677 46.1828 137.058 46.0753 137.385 45.8333C137.685 45.5914 137.93 45.2957 138.066 44.8925C138.23 44.4892 138.311 44.0323 138.311 43.5484C138.311 43.0645 138.23 42.6075 138.093 42.2043C137.93 41.8011 137.712 41.4785 137.412 41.2634C137.113 41.0215 136.704 40.914 136.241 40.914C135.778 40.914 135.397 41.0215 135.07 41.2366C134.77 41.4516 134.525 41.7742 134.389 42.1774C134.226 42.5806 134.171 43.0376 134.171 43.5484C134.171 44.0591 134.253 44.5161 134.389 44.9193C134.553 45.3226 134.77 45.6452 135.07 45.8602C135.37 46.0753 135.751 46.1828 136.214 46.1828Z" fill="white"/>
<path d="M143.459 47.0161C142.805 47.0161 142.261 46.8817 141.77 46.586C141.28 46.2903 140.926 45.914 140.654 45.3763C140.381 44.8656 140.272 44.2473 140.272 43.5753C140.272 42.8495 140.409 42.2312 140.654 41.7204C140.926 41.2097 141.28 40.7796 141.743 40.5108C142.206 40.2151 142.778 40.0806 143.405 40.0806C144.058 40.0806 144.63 40.2419 145.093 40.5376C145.556 40.8333 145.91 41.2634 146.156 41.8279C146.401 42.3925 146.51 43.0376 146.482 43.8172H145.556V43.4946C145.529 42.6344 145.366 41.9892 145.012 41.5591C144.658 41.129 144.14 40.914 143.459 40.914C142.751 40.914 142.206 41.129 141.825 41.6129C141.444 42.0968 141.253 42.715 141.253 43.5753C141.253 44.4086 141.444 45.0538 141.825 45.5107C142.206 45.9677 142.751 46.2097 143.432 46.2097C143.922 46.2097 144.331 46.1021 144.685 45.8871C145.039 45.672 145.311 45.3495 145.529 44.9462L146.374 45.2688C146.101 45.8333 145.72 46.2903 145.202 46.586C144.685 46.8548 144.086 47.0161 143.459 47.0161ZM140.899 43.7903V43.0376H145.992V43.7903H140.899Z" fill="white"/>
<path d="M147.354 48.3065V46.0753C147.735 46.0753 148.008 45.9409 148.171 45.6989C148.335 45.457 148.471 45.0806 148.58 44.543C148.661 44.1936 148.716 43.8172 148.743 43.4409C148.798 43.0376 148.825 42.5806 148.852 42.0699C148.879 41.5591 148.907 40.9409 148.934 40.2688H153.346V46.0753H154V48.3065H153.128V46.8548H148.226V48.3065H147.354ZM148.879 46.0753H152.447V41.0215H149.778C149.778 41.3172 149.751 41.6667 149.724 41.9893C149.697 42.3387 149.669 42.6882 149.642 43.0376C149.615 43.3871 149.588 43.7097 149.533 44.0054C149.506 44.3011 149.451 44.5699 149.397 44.8118C149.342 45.1075 149.261 45.3495 149.206 45.5645C149.152 45.7527 149.043 45.9409 148.879 46.0753Z" fill="white"/>
<path d="M160.51 40.2688V46.8548H159.638V41.7473L155.988 46.8548H155.226V40.2688H156.097V45.3495L159.747 40.2688H160.51Z" fill="white"/>
<path d="M164.051 46.828V41.0753H161.681V40.2419H167.319V41.0753H164.949V46.828H164.051Z" fill="white"/>
<path d="M171.16 47.0161C170.506 47.0161 169.934 46.8548 169.471 46.5591C169.008 46.2634 168.654 45.8602 168.381 45.3226C168.136 44.8118 168 44.1936 168 43.5215C168 42.8226 168.136 42.2312 168.381 41.7204C168.626 41.2097 169.008 40.8065 169.471 40.5108C169.934 40.2151 170.506 40.0806 171.16 40.0806C171.813 40.0806 172.385 40.2419 172.875 40.5108C173.339 40.8065 173.72 41.2097 173.965 41.7473C174.21 42.2581 174.346 42.8763 174.346 43.5484C174.346 44.2473 174.21 44.8387 173.965 45.3763C173.72 45.914 173.366 46.3172 172.875 46.586C172.385 46.8548 171.813 47.0161 171.16 47.0161ZM171.16 46.1559C171.895 46.1559 172.44 45.914 172.821 45.4301C173.175 44.9462 173.366 44.3011 173.366 43.5484C173.366 42.7419 173.175 42.1237 172.821 41.6398C172.467 41.1559 171.922 40.9409 171.16 40.9409C170.669 40.9409 170.261 41.0484 169.934 41.2634C169.607 41.4785 169.362 41.8011 169.198 42.1774C169.035 42.5538 168.953 43.0108 168.953 43.5215C168.953 44.3011 169.144 44.9462 169.498 45.4301C169.907 45.914 170.451 46.1559 171.16 46.1559Z" fill="white"/>
<path d="M175.681 46.828V40.2419H178.432C178.568 40.2419 178.732 40.2419 178.949 40.2688C179.14 40.2957 179.331 40.3226 179.521 40.3495C179.903 40.457 180.202 40.6452 180.42 40.9409C180.638 41.2366 180.774 41.6129 180.774 42.0161C180.774 42.2581 180.747 42.4731 180.665 42.6344C180.584 42.8226 180.502 42.9839 180.366 43.1183C180.311 43.1989 180.23 43.2527 180.175 43.3064C180.093 43.3602 180.039 43.3871 179.957 43.4409C180.093 43.4677 180.23 43.5215 180.393 43.6022C180.638 43.7366 180.802 43.9247 180.938 44.1667C181.074 44.4086 181.128 44.6774 181.128 45.0269C181.128 45.4839 181.019 45.8333 180.802 46.129C180.584 46.4247 180.284 46.6129 179.93 46.7204C179.767 46.7742 179.576 46.8011 179.385 46.8011C179.195 46.8011 179.004 46.828 178.84 46.828H175.681ZM176.58 43.172H178.432C178.541 43.172 178.65 43.172 178.786 43.1452C178.922 43.1183 179.031 43.1183 179.14 43.0645C179.358 42.9839 179.521 42.8763 179.603 42.6882C179.712 42.5 179.767 42.3118 179.767 42.0968C179.767 41.8548 179.712 41.6667 179.603 41.4785C179.494 41.3172 179.331 41.1828 179.113 41.1022C178.977 41.0484 178.813 41.0215 178.623 41.0215C178.459 41.0215 178.35 41.0215 178.296 41.0215H176.553V43.172H176.58ZM176.58 46.0753H178.732C178.813 46.0753 178.922 46.0753 179.058 46.0484C179.195 46.0215 179.304 46.0215 179.412 45.9946C179.658 45.9409 179.821 45.8065 179.957 45.6183C180.066 45.4301 180.121 45.2419 180.121 45C180.121 44.7043 180.039 44.4892 179.875 44.3011C179.712 44.1129 179.467 44.0054 179.195 43.9516C179.086 43.9247 179.004 43.9247 178.895 43.9247C178.786 43.9247 178.704 43.9247 178.623 43.9247H176.607V46.0753H176.58Z" fill="white"/>
<path d="M184.206 47.0161C183.716 47.0161 183.28 46.9355 182.953 46.7473C182.626 46.5591 182.354 46.3441 182.191 46.0215C182.027 45.7258 181.946 45.4032 181.946 45.0538C181.946 44.7043 182.027 44.3817 182.163 44.1398C182.3 43.8979 182.518 43.6828 182.763 43.5215C183.008 43.3602 183.307 43.2258 183.634 43.1452C183.961 43.0645 184.342 42.9839 184.751 42.9301C185.16 42.8763 185.568 42.8226 185.949 42.7688C186.331 42.715 186.685 42.6613 186.984 42.6344L186.658 42.8226C186.658 42.1774 186.549 41.6936 186.276 41.371C186.004 41.0484 185.541 40.8871 184.887 40.8871C184.424 40.8871 184.043 40.9946 183.716 41.1828C183.389 41.3979 183.171 41.6935 183.062 42.1505L182.191 41.9086C182.354 41.3172 182.654 40.8602 183.117 40.5376C183.58 40.2151 184.179 40.0538 184.914 40.0538C185.514 40.0538 186.031 40.1613 186.467 40.4032C186.903 40.6183 187.202 40.9409 187.366 41.371C187.447 41.5591 187.502 41.7742 187.529 42.0161C187.556 42.2581 187.556 42.5 187.556 42.7419V46.828H186.739V45.1882L186.984 45.2957C186.767 45.8602 186.412 46.2903 185.922 46.586C185.432 46.8548 184.86 47.0161 184.206 47.0161ZM184.288 46.2366C184.724 46.2366 185.078 46.1559 185.405 46.0215C185.732 45.8602 185.977 45.6721 186.167 45.4032C186.358 45.1344 186.494 44.8387 186.549 44.5161C186.603 44.3011 186.63 44.0591 186.63 43.8172C186.63 43.5753 186.63 43.3871 186.63 43.2527L186.984 43.4409C186.685 43.4677 186.331 43.5215 185.977 43.5753C185.623 43.629 185.268 43.6559 184.914 43.7097C184.56 43.7634 184.261 43.8172 183.961 43.8978C183.77 43.9516 183.58 44.0323 183.416 44.1129C183.253 44.2204 183.089 44.328 182.981 44.4892C182.872 44.6505 182.817 44.8387 182.817 45.0806C182.817 45.2688 182.872 45.457 182.953 45.6452C183.062 45.8333 183.198 45.9677 183.416 46.1022C183.634 46.2366 183.934 46.2366 184.288 46.2366Z" fill="white"/>
<path d="M189.136 46.828V40.2419H190.035V43.0914H193.794V40.2419H194.693V46.828H193.794V43.9785H190.035V46.828H189.136Z" fill="white"/>
<path d="M201.72 40.2688V46.8548H200.848V41.7473L197.198 46.8548H196.436V40.2688H197.307V45.3495L200.957 40.2688H201.72Z" fill="white"/>
<path d="M206.269 47.0161C205.615 47.0161 205.07 46.8817 204.58 46.586C204.09 46.2903 203.735 45.914 203.463 45.3763C203.191 44.8656 203.082 44.2473 203.082 43.5753C203.082 42.8495 203.218 42.2312 203.463 41.7204C203.735 41.2097 204.09 40.7796 204.553 40.5108C205.016 40.2151 205.588 40.0806 206.214 40.0806C206.868 40.0806 207.44 40.2419 207.903 40.5376C208.366 40.8333 208.72 41.2634 208.965 41.8279C209.21 42.3925 209.319 43.0376 209.292 43.8172H208.366V43.4946C208.339 42.6344 208.175 41.9892 207.821 41.5591C207.467 41.129 206.949 40.914 206.269 40.914C205.56 40.914 205.016 41.129 204.634 41.6129C204.253 42.0968 204.062 42.715 204.062 43.5753C204.062 44.4086 204.253 45.0538 204.634 45.5107C205.016 45.9677 205.56 46.2097 206.241 46.2097C206.732 46.2097 207.14 46.1021 207.494 45.8871C207.848 45.672 208.121 45.3495 208.339 44.9462L209.183 45.2688C208.911 45.8333 208.529 46.2903 208.012 46.586C207.494 46.8548 206.922 47.0161 206.269 47.0161ZM203.735 43.7903V43.0376H208.829V43.7903H203.735Z" fill="white"/>
<path d="M0.108948 0.0268841H8.79767V25.2151H15.9339V0.0268841H24.6226V25.2151C29.1712 25.2151 30.642 26.4785 30.642 37.7957H23.9961C23.9961 33.3871 24.3502 31.5054 21.1362 31.5054H0.108948V0.0268841Z" fill="white"/>
<path d="M34.2374 0.0537682H53.4397V6.34409H42.8716V11.8548H52.2957V18.1452H42.8716V25.1882H54.1206V31.4785H34.2374V0.0537682Z" fill="white"/>
<path d="M58.3424 0.0537682H66.9766V11.7204H77V0.0537682H85.6342V31.4785H77V18.0108H66.9766V31.4785H58.3424V0.0537682Z" fill="white"/>
<path d="M98.1907 6.34409H88.7393V0.0537682H116.303V6.34409H106.852V31.4785H98.2179V6.34409H98.1907Z" fill="white"/>
<path d="M119.409 0.0537682H131.965C140.599 0.0537682 144.304 5.21505 144.304 10.8333C144.304 16.4785 140.626 21.8011 131.965 21.8011H128.043V31.5054H119.409V0.0537682ZM130.358 15.5108C133.054 15.5108 135.588 14.785 135.588 10.9409C135.588 7.09678 133 6.37097 130.358 6.37097H128.043V15.5376H130.358V15.5108Z" fill="white"/>
<path d="M197.661 12.6075C197.607 12.7688 197.444 12.8764 197.28 12.8764H189.49C189.218 12.8764 189 12.6075 189.109 12.3387L193.63 0.0806427H202.265L197.661 12.6075ZM151.058 31.5054H159.693L164.214 19.2204C164.323 18.9516 164.105 18.6828 163.833 18.6828H156.07C155.907 18.6828 155.743 18.7903 155.689 18.9516L151.058 31.5054ZM157.895 14.7043C161.109 14.2742 163.969 13.3065 166.529 11.8011C166.911 11.5591 167.21 11.2097 167.374 10.7796L171.323 0.0806427H149.724L147.409 6.37097H160.374L157.486 14.1667C157.35 14.4355 157.595 14.7312 157.895 14.7043ZM208.911 17.5538C207.848 15.4839 206.078 14.4086 203.872 14.1667C203.518 14.1398 203.191 14.4086 203.191 14.7581C203.191 15.0538 203.409 15.2957 203.708 15.3495C205.86 15.672 207.14 18.0107 207.14 20.6452C207.14 24.5699 203.463 27.9301 199.323 26.9893C197.553 26.586 195.973 25.4301 195.319 23.7366C194.774 22.3118 194.802 20.8602 195.101 19.5161C195.265 18.7903 195.51 18.0645 195.755 17.3925C195.864 17.0968 195.619 16.8011 195.319 16.8548C192.623 17.2312 190.171 18.0108 187.938 19.1398C187.311 19.4624 186.875 20.0806 186.848 20.7796C186.63 23.9516 187.556 28.0914 191.125 30.2957C191.942 30.8065 192.922 31.2097 194.039 31.4785C206.323 34.4892 211.988 23.5753 208.911 17.5538ZM200.058 14.1398H181.619L186.794 0.0806427H178.16C175.354 5.83333 171.65 10.4839 166.447 13.2796C163.669 14.785 160.482 15.7527 156.751 16.1022C155.716 16.2097 154.654 16.2634 153.537 16.2634H153.319C152.992 16.2634 152.72 16.5323 152.72 16.8548C152.72 17.1774 152.992 17.4462 153.319 17.4462H171.759L166.584 31.5054H175.218C178.023 25.7527 181.728 21.1021 186.93 18.3064C189.708 16.8011 192.895 15.8333 196.626 15.4839C197.661 15.3763 198.724 15.3226 199.84 15.3226H200.058C200.385 15.3226 200.658 15.0538 200.658 14.7312C200.658 14.3817 200.385 14.1398 200.058 14.1398Z" fill="#4E66AA"/>
</g>
<defs>
<clipPath id="clip0_2001_402">
<rect width="210" height="50" fill="white"/>
</clipPath>
</defs>
</svg>
