<svg width="117" height="57" viewBox="0 0 117 57" fill="none" xmlns="http://www.w3.org/2000/svg">
<path fill-rule="evenodd" clip-rule="evenodd" d="M17.8333 0C8.16827 0 0.333252 7.83502 0.333252 17.5C0.333252 27.165 8.16827 35 17.8333 35H21.9172C21.5363 36.4359 21.3333 37.9442 21.3333 39.5C21.3333 49.165 29.1683 57 38.8333 57H98.8333C108.498 57 116.333 49.165 116.333 39.5C116.333 29.835 108.498 22 98.8333 22H94.7493C95.1302 20.5641 95.3333 19.0558 95.3333 17.5C95.3333 7.83502 87.4982 0 77.8333 0H17.8333Z" fill="#DD1414"/>
<path d="M78.3333 29L48.3333 46.3205V11.6795L78.3333 29Z" fill="#F6F6F6"/>
</svg>
