<svg width="59" height="11" viewBox="0 0 59 11" fill="none" xmlns="http://www.w3.org/2000/svg">
<path d="M5.66669 0.5L6.78926 3.95492H10.422L7.48304 6.09017L8.60561 9.54508L5.66669 7.40983L2.72776 9.54508L3.85033 6.09017L0.911405 3.95492H4.54412L5.66669 0.5Z" fill="#EFC20D"/>
<path d="M17.6667 0.5L18.7893 3.95492H22.422L19.483 6.09017L20.6056 9.54508L17.6667 7.40983L14.7278 9.54508L15.8503 6.09017L12.9114 3.95492H16.5441L17.6667 0.5Z" fill="#EFC20D"/>
<path d="M29.6667 0.5L30.7893 3.95492H34.422L31.483 6.09017L32.6056 9.54508L29.6667 7.40983L26.7278 9.54508L27.8503 6.09017L24.9114 3.95492H28.5441L29.6667 0.5Z" fill="#EFC20D"/>
<path d="M41.6667 0.5L42.7893 3.95492H46.422L43.483 6.09017L44.6056 9.54508L41.6667 7.40983L38.7278 9.54508L39.8503 6.09017L36.9114 3.95492H40.5441L41.6667 0.5Z" fill="#EFC20D"/>
<path d="M53.6667 0.5L54.7893 3.95492H58.422L55.483 6.09017L56.6056 9.54508L53.6667 7.40983L50.7278 9.54508L51.8503 6.09017L48.9114 3.95492H52.5441L53.6667 0.5Z" fill="#EFC20D"/>
</svg>
